<?xml version="1.0" encoding="UTF-8"?>
<svg id="Capa_2" data-name="Capa 2" xmlns="http://www.w3.org/2000/svg" viewBox="0 0 3109.4 762.08">
  <defs>
    <style>
      .cls-1 {
        fill: #b8d1dd;
        stroke-width: 0px;
      }
    </style>
  </defs>
  <g id="Capa_1-2" data-name="Capa 1">
    <g>
      <g>
        <path class="cls-1" d="m694.74,484.93v277.13h-277.86v-138.66c0-154.6-122.85-277.13-277.86-277.13H0V69.15h277.95v138.66c0,154.6,122.85,277.12,277.86,277.12h138.93Z"/>
        <rect class="cls-1" x=".03" y="484.93" width="277.88" height="277.1"/>
        <path class="cls-1" d="m381.25,0h689.54v381.47h-516.15c-95.7,0-173.39-77.69-173.39-173.39V0h0Z"/>
      </g>
      <path class="cls-1" d="m992.42,762.06v-277.08h78.58v277.08h-78.58Z"/>
      <polygon class="cls-1" points="1391.27 484.99 1391.27 762.08 1326.59 762.08 1203.95 614.44 1203.95 762.08 1126.97 762.08 1126.97 484.99 1191.65 484.99 1314.29 632.63 1314.29 484.99 1391.27 484.99"/>
      <polygon class="cls-1" points="1525.9 545.53 1525.9 627.77 1648.54 627.77 1648.54 688.36 1525.9 688.36 1525.9 762.08 1447.32 762.08 1447.32 484.99 1665.22 484.99 1665.22 545.53 1525.9 545.53"/>
      <path class="cls-1" d="m1917.26,674.86c16.8-8,29.93-19.07,39.41-33.36,10.03-15.17,15.05-33.16,15.05-54.02s-5.02-39.37-15.05-54.81c-10.07-15.44-24.32-27.27-42.71-35.43-18.39-8.2-40.24-12.26-65.64-12.26h-127.02v277.09h78.58v-73.64h42.87l50.39,73.64h84.15l-60.03-87.21Zm-37.02-57.68c-8.08,7.13-20.3,10.67-36.7,10.67h-43.67v-81.12h43.67c16.4,0,28.62,3.54,36.7,10.67,8.08,7.16,12.1,17.16,12.1,30.09s-4.02,22.57-12.1,29.69Z"/>
      <path class="cls-1" d="m2200.16,484.99h-77.38l-122.64,277.09h80.17l21.65-53.86h117.82l21.65,53.86h81.76l-123.04-277.09Zm-74.91,165.43l35.63-88.57,35.63,88.57h-71.25Z"/>
      <path class="cls-1" d="m2359.98,762.06v-214.94h-85.32v-62.14h248.83v62.14h-84.92v214.94h-78.59Z"/>
      <polygon class="cls-1" points="2635.47 545.53 2635.47 592.27 2758.91 592.27 2758.91 650.82 2635.47 650.82 2635.47 701.49 2775.59 701.49 2775.59 762.08 2557.69 762.08 2557.69 484.99 2775.59 484.99 2775.59 545.53 2635.47 545.53"/>
      <polygon class="cls-1" points="3109.4 762.08 3018.12 762.08 2938.55 661.49 2909.37 692.66 2909.37 762.08 2831.59 762.08 2831.59 484.99 2909.37 484.99 2909.37 600.07 3016.93 484.99 3103.47 484.99 2990.06 607.55 3109.4 762.08"/>
    </g>
  </g>
</svg>