<?xml version="1.0" encoding="UTF-8"?>
<svg id="Capa_2" data-name="Capa 2" xmlns="http://www.w3.org/2000/svg" viewBox="0 0 2116.98 277.1">
  <defs>
    <style>
      .cls-1 {
        fill: #f6f6f6;
        stroke-width: 0px;
      }
    </style>
  </defs>
  <g id="Capa_1-2" data-name="Capa 1">
    <g>
      <path class="cls-1" d="m0,277.08V0h78.58v277.08H0Z"/>
      <polygon class="cls-1" points="398.86 .01 398.86 277.1 334.17 277.1 211.53 129.46 211.53 277.1 134.55 277.1 134.55 .01 199.23 .01 321.87 147.65 321.87 .01 398.86 .01"/>
      <polygon class="cls-1" points="533.48 60.56 533.48 142.79 656.12 142.79 656.12 203.38 533.48 203.38 533.48 277.1 454.9 277.1 454.9 .01 672.8 .01 672.8 60.56 533.48 60.56"/>
      <path class="cls-1" d="m924.85,189.88c16.8-8,29.93-19.07,39.41-33.36,10.03-15.17,15.05-33.16,15.05-54.02s-5.02-39.37-15.05-54.81c-10.07-15.44-24.32-27.27-42.71-35.43C903.15,4.07,881.3.01,855.9.01h-127.02v277.09h78.58v-73.64h42.87l50.39,73.64h84.15l-60.03-87.21Zm-37.02-57.68c-8.08,7.13-20.3,10.67-36.7,10.67h-43.67V61.75h43.67c16.4,0,28.62,3.54,36.7,10.67,8.08,7.16,12.1,17.16,12.1,30.09s-4.02,22.57-12.1,29.69Z"/>
      <path class="cls-1" d="m1207.75.01h-77.38l-122.64,277.09h80.17l21.65-53.86h117.82l21.65,53.86h81.76L1207.75.01Zm-74.91,165.43l35.63-88.57,35.63,88.57h-71.25Z"/>
      <path class="cls-1" d="m1367.57,277.08V62.14h-85.32V0h248.83v62.14h-84.92v214.94h-78.59Z"/>
      <polygon class="cls-1" points="1643.06 60.56 1643.06 107.29 1766.49 107.29 1766.49 165.84 1643.06 165.84 1643.06 216.51 1783.17 216.51 1783.17 277.1 1565.28 277.1 1565.28 .01 1783.17 .01 1783.17 60.56 1643.06 60.56"/>
      <polygon class="cls-1" points="2116.98 277.1 2025.71 277.1 1946.14 176.51 1916.96 207.68 1916.96 277.1 1839.18 277.1 1839.18 .01 1916.96 .01 1916.96 115.09 2024.51 .01 2111.05 .01 1997.64 122.57 2116.98 277.1"/>
    </g>
  </g>
</svg>