<?xml version="1.0" encoding="UTF-8"?>
<svg id="Capa_2" data-name="Capa 2" xmlns="http://www.w3.org/2000/svg" viewBox="0 0 1602.2 1602.2">
  <defs>
    <style>
      .cls-1 {
        fill: #b8d1dd;
        stroke-width: 0px;
      }
    </style>
  </defs>
  <g id="Capa_1-2" data-name="Capa 1">
    <g>
      <g>
        <path class="cls-1" d="m872.21,847.59v124h-124v-62.04c0-69.18-54.83-124-124-124h-62.04v-124h124.05v62.04c0,69.18,54.83,124,124,124h62Z"/>
        <rect class="cls-1" x="562.18" y="847.59" width="124.01" height="123.99"/>
        <path class="cls-1" d="m732.31,630.6h307.73v170.7h-230.25c-42.76,0-77.48-34.72-77.48-77.48v-93.21h0Z"/>
      </g>
      <g>
        <g>
          <path class="cls-1" d="m332.23,557.38l-127.43-78.79,22.28-36.04,127.43,78.79-22.28,36.04Z"/>
          <path class="cls-1" d="m372.91,488.65l-104.89-106.96,24.88-24.44,128.85,13.36-11.75,11.54-69.86-71.22,29.64-29.08,104.94,106.98-24.92,24.44-128.85-13.38,11.79-11.54,69.82,71.22-29.64,29.08Z"/>
          <path class="cls-1" d="m541.14,351.48l-37.63,19.54-69.11-132.95,104.27-54.2,15.09,29.06-66.64,34.66,54.01,103.89Zm-41.47-73.25l61.33-31.9,15.13,29.06-61.37,31.9-15.09-29.06Z"/>
          <path class="cls-1" d="m629.9,309.05l-28.85-147.04,67.18-13.19c13.46-2.65,25.46-2.76,36.04-.33,10.58,2.45,19.36,7.23,26.3,14.38,6.9,7.13,11.5,16.3,13.67,27.51,2.17,11.06,1.42,21.15-2.34,30.25-3.72,9.09-10.03,16.72-18.94,22.91-8.9,6.19-20.07,10.6-33.49,13.23l-44.11,8.68,15.05-21.07,11.08,56.5-41.6,8.17Zm31.36-60.27l-22.2-15.49,41.56-8.15c8.7-1.71,14.8-4.87,18.31-9.49,3.55-4.62,4.64-10.28,3.34-17.02-1.38-6.86-4.56-11.77-9.57-14.7-5.02-2.95-11.83-3.57-20.53-1.86l-41.6,8.17,14.72-22.74,15.97,81.27Zm59.62,42.39l-47.07-46.39,44.32-8.7,47.28,46.34-44.52,8.74Z"/>
          <path class="cls-1" d="m774.51,280.1l83.74-140.77,41.43,5.02,47.79,156.76-43.77-5.33-35.83-134.37,16.56,2.01-66.98,121.89-42.94-5.21Zm39.42-24.54l14.59-29.7,72.7,8.82,7.07,32.34-94.36-11.46Z"/>
          <path class="cls-1" d="m977.57,317.95l43.94-107.59-42.6-17.41,12.71-31.1,124.25,50.77-12.71,31.1-42.39-17.33-43.98,107.59-39.22-16.03Z"/>
          <path class="cls-1" d="m1128.03,361.5l62.08,47.74-19.94,25.96-95.36-73.33,91.35-118.77,93.15,71.64-19.98,25.96-59.87-46.07-51.42,66.87Zm33.65-48.66l55.14,42.41-19.31,25.11-55.14-42.41,19.31-25.11Z"/>
          <path class="cls-1" d="m1190.16,455.46l121.74-87.38,24.46,34.07-121.7,87.4-24.5-34.09Zm49.04,11.43l37.25-29.64,93.73,12.02,27.22,37.9-93.94-11.58-33.74-4.77-30.52-3.93Zm9.66,70.3l21.78-75.73,40.09,5.21-33.15,110.52-28.72-39.99Z"/>
        </g>
        <g>
          <path class="cls-1" d="m179.33,977.72l71.43-22.6,10.68,33.78c2.49,7.9,3.22,15.3,2.19,22.22-1.02,6.9-3.68,12.88-7.9,17.94-4.24,5.04-10.05,8.72-17.39,11.04-7.27,2.3-14.13,2.61-20.53.94-6.42-1.67-12.02-5.06-16.83-10.12-4.83-5.06-8.49-11.54-10.97-19.42l-10.68-33.78Zm22.51,15.11l4.03,12.75c1.3,4.08,3.18,7.38,5.66,9.93,2.49,2.55,5.48,4.2,8.97,4.98,3.51.75,7.3.5,11.37-.79,4.16-1.32,7.42-3.28,9.8-5.92,2.4-2.61,3.87-5.69,4.45-9.2.56-3.51.21-7.32-1.09-11.39l-4.01-12.75-39.19,12.4Z"/>
          <path class="cls-1" d="m209.64,1069.25l81.78-4.22,9.41,18.65-51.95,63.36-9.93-19.69,45.95-52.2,3.76,7.46-69.27,5.94-9.74-19.29Zm21.13,9.59l16.41-2.17,16.49,32.69-11.5,11.89-21.41-42.41Z"/>
          <path class="cls-1" d="m268.13,1175.02l47.83-33.01-13.06-18.94,13.84-9.53,38.11,55.23-13.84,9.55-13-18.86-47.85,32.99-12.02-17.43Z"/>
          <path class="cls-1" d="m299.49,1220.36l77.62-26.09,14.07,15.41-32.94,75.02-14.86-16.28,30.18-62.65,5.62,6.17-65.11,24.39-14.57-15.97Zm22.93,3.55l15.22-6.52,24.69,27.05-7.86,14.55-32.05-35.08Z"/>
          <path class="cls-1" d="m409.25,1328l42.83-61.48,31.44,21.91c8.07,5.62,13.06,11.29,14.99,17.04,1.92,5.73,1.21,11-2.13,15.78-2.19,3.16-4.95,5.35-8.28,6.56-3.32,1.21-6.96,1.44-10.93.73-3.99-.73-8.05-2.55-12.21-5.43l4.7-2.99c4.33,3.01,7.65,6.29,9.95,9.87,2.3,3.55,3.47,7.19,3.53,10.93.04,3.74-1.17,7.38-3.66,10.95-3.72,5.33-8.74,7.99-15.11,7.94-6.35-.04-13.67-2.95-21.93-8.7l-33.19-23.12Zm25.96-.56l14.57,10.14c2.99,2.09,5.62,3.16,7.88,3.22,2.28.04,4.14-.98,5.6-3.09,1.46-2.09,1.78-4.2.94-6.31s-2.74-4.2-5.73-6.27l-15.8-11.02,8.38-12.04,13.17,9.18c2.93,2.05,5.46,3.07,7.63,3.09,2.15.04,3.93-.94,5.31-2.95,1.38-1.99,1.67-3.97.9-5.96-.79-1.99-2.65-3.99-5.58-6.04l-11.94-8.32-25.34,36.37Z"/>
          <path class="cls-1" d="m494.18,1382.97l35.06-66.22,18.73,9.93-35.06,66.2-18.73-9.91Z"/>
          <path class="cls-1" d="m543.16,1408.79l25.65-70.4,16.39,5.98,11.73,58.49-8.65-3.14,45.8-37.54,16.39,5.98-25.46,70.47-18.29-6.67,15.3-42.62,3.11,1.15-34.2,27.86-8.84-3.24-8.84-43.54,3.83,1.4-15.51,42.54-18.4-6.71Z"/>
          <path class="cls-1" d="m715.7,1456.45l7-57.69-22.83-2.76,2.03-16.68,66.6,8.09-2.01,16.68-22.74-2.76-7.02,57.69-21.03-2.57Z"/>
          <path class="cls-1" d="m806.29,1446.17l39.17-.65.25,16.39-60.14.96-1.21-74.9,58.76-.96.25,16.37-37.77.63.69,42.16Zm-1.99-29.52l34.78-.56.27,15.84-34.78.56-.27-15.84Z"/>
          <path class="cls-1" d="m913.15,1454.92c-5.83.94-11.39.88-16.66-.19-5.27-1.07-9.99-3.03-14.17-5.92-4.18-2.86-7.67-6.46-10.47-10.83-2.8-4.35-4.64-9.34-5.56-14.99-.9-5.62-.71-10.95.59-15.97,1.28-5.02,3.47-9.53,6.54-13.57s6.94-7.4,11.6-10.05c4.66-2.68,9.93-4.47,15.76-5.41,6.84-1.11,13.15-.88,18.92.65,5.77,1.53,10.83,4.24,15.13,8.17l-11.37,14.19c-2.84-2.42-5.81-4.16-8.9-5.18-3.09-1-6.4-1.23-9.93-.67-3.03.48-5.73,1.42-8.11,2.82-2.36,1.4-4.31,3.18-5.81,5.33-1.48,2.15-2.53,4.62-3.14,7.38-.61,2.78-.65,5.75-.15,8.9.52,3.18,1.48,5.98,2.93,8.42,1.44,2.45,3.22,4.45,5.31,6.04,2.09,1.57,4.49,2.65,7.19,3.22,2.7.59,5.56.63,8.59.15,3.51-.56,6.58-1.82,9.2-3.76,2.61-1.94,4.89-4.52,6.84-7.71l15.26,9.91c-2.88,5.02-6.84,9.18-11.83,12.46-5,3.3-10.91,5.5-17.75,6.61Z"/>
          <path class="cls-1" d="m992.76,1434.69l-20.13,6.65-23.45-71.16,20.13-6.63,23.45,71.14Zm19.71-37.27l-30.29,9.99-5.5-16.66,30.29-9.99,5.5,16.66Zm-15.72-42.92l20.11-6.65,23.47,71.16-20.13,6.63-23.45-71.14Z"/>
          <path class="cls-1" d="m1073.26,1405.03l-34.97-66.26,15.43-8.15,59.83,24.83-7.3,3.85-23.27-44.11,18.35-9.68,34.97,66.24-15.43,8.15-59.83-24.83,7.3-3.85,23.27,44.11-18.35,9.7Z"/>
          <path class="cls-1" d="m1197.09,1330.99c-4.75,3.66-9.72,6.25-14.93,7.8-5.18,1.57-10.35,2.07-15.47,1.55s-9.93-2.03-14.44-4.49c-4.49-2.49-8.47-5.96-11.89-10.43-3.43-4.47-5.77-9.22-6.98-14.21-1.23-5-1.42-10.03-.61-15.11.84-5.08,2.68-9.93,5.52-14.53,2.84-4.62,6.65-8.74,11.41-12.4,4.81-3.68,9.78-6.29,14.95-7.84,5.18-1.53,10.31-2.01,15.41-1.46,5.08.54,9.91,2.05,14.44,4.49,4.52,2.47,8.51,5.92,11.94,10.39,3.43,4.47,5.75,9.24,6.96,14.28,1.23,5.06,1.42,10.1.61,15.13-.82,5.02-2.63,9.85-5.46,14.42-2.82,4.6-6.63,8.74-11.46,12.42Zm-10.68-13.92c2.28-1.74,4.08-3.76,5.43-6.04,1.34-2.3,2.15-4.75,2.45-7.36.29-2.59.04-5.27-.73-7.99-.79-2.74-2.15-5.37-4.12-7.92-1.99-2.59-4.18-4.62-6.61-6.06-2.4-1.42-4.89-2.34-7.48-2.74-2.59-.4-5.18-.23-7.73.46-2.57.71-4.98,1.92-7.25,3.66-2.26,1.76-4.06,3.76-5.41,6.04-1.34,2.3-2.15,4.75-2.45,7.36s-.06,5.27.69,7.96c.77,2.7,2.15,5.33,4.14,7.94,1.96,2.55,4.16,4.56,6.58,6.02,2.42,1.46,4.93,2.4,7.53,2.78,2.59.4,5.18.25,7.73-.46,2.57-.71,4.98-1.92,7.23-3.66Z"/>
          <path class="cls-1" d="m1251.42,1282.99l-53.97-51.95,14.67-15.28,41.89,40.3,24.79-25.77,12.1,11.66-39.49,41.03Z"/>
          <path class="cls-1" d="m1331.12,1192.14c-3.49,4.87-7.46,8.82-11.98,11.83-4.52,3.01-9.28,5.02-14.34,6.04-5.04,1-10.08.98-15.11-.06s-9.87-3.2-14.47-6.46c-4.58-3.28-8.19-7.11-10.83-11.54-2.65-4.41-4.33-9.16-5.04-14.26-.69-5.1-.38-10.28,1-15.53,1.36-5.25,3.78-10.31,7.25-15.2,3.51-4.93,7.5-8.9,12-11.87,4.49-2.99,9.24-4.98,14.28-5.94,5.02-.98,10.05-.96,15.11.04,5.06,1.02,9.89,3.16,14.49,6.42,4.6,3.28,8.22,7.15,10.87,11.6,2.63,4.47,4.31,9.22,5.02,14.28.69,5.06.38,10.18-.98,15.41-1.34,5.21-3.76,10.28-7.27,15.24Zm-14.32-10.18c1.65-2.32,2.8-4.79,3.41-7.36.61-2.59.67-5.18.19-7.76-.48-2.57-1.51-5.06-3.05-7.42-1.57-2.38-3.64-4.49-6.25-6.35-2.68-1.9-5.37-3.18-8.11-3.85-2.72-.67-5.37-.82-7.96-.42-2.59.38-5.02,1.28-7.25,2.72-2.24,1.42-4.2,3.3-5.85,5.62-1.65,2.32-2.78,4.79-3.39,7.36-.63,2.59-.69,5.18-.19,7.76.48,2.57,1.48,5.04,3.01,7.4,1.53,2.34,3.62,4.47,6.29,6.38,2.61,1.86,5.31,3.14,8.05,3.83,2.76.69,5.43.84,8.03.44,2.59-.38,5.02-1.28,7.25-2.72,2.24-1.42,4.18-3.3,5.83-5.62Z"/>
          <path class="cls-1" d="m1387.31,1096.68c-2.59,5.33-5.85,9.85-9.76,13.59-3.91,3.72-8.24,6.48-12.98,8.26-4.77,1.78-9.72,2.57-14.88,2.36-5.18-.21-10.33-1.57-15.47-4.06-5.14-2.51-9.39-5.71-12.75-9.66-3.37-3.93-5.81-8.32-7.34-13.19-1.53-4.87-2.01-9.99-1.48-15.43.52-5.41,2.11-10.85,4.77-16.3,3.07-6.35,6.9-11.52,11.46-15.49,4.54-3.97,9.59-6.65,15.18-7.99l5.08,17.48c-3.64,1.09-6.71,2.65-9.26,4.72-2.55,2.05-4.62,4.7-6.21,7.99-1.4,2.88-2.22,5.75-2.47,8.55-.27,2.82.06,5.48.94,7.96.9,2.49,2.28,4.77,4.18,6.84,1.88,2.07,4.31,3.83,7.25,5.27,2.82,1.36,5.66,2.15,8.49,2.38,2.82.23,5.5-.08,8.01-.94,2.51-.84,4.81-2.19,6.86-4.1,2.07-1.88,3.8-4.24,5.16-7.07,1.38-2.82,2.26-5.81,2.63-8.97.38-3.14.1-6.65-.79-10.49l18.56-4.18c.9,5.18.86,10.68-.15,16.47-.98,5.77-2.65,11.12-5.02,15.99Zm-5.52-16.83l-25.42-12.35,8.19-16.85,27.91,13.57-10.68,15.64Z"/>
          <path class="cls-1" d="m1416.58,1020.04l-30.27-9.41,13.63-.92-63.4,15.36,6.65-21.34,45.93-11.06-3.85,12.37-31.52-35.26,6.1-19.61,43.52,48.5-10.74-8.28,30.25,9.41-6.29,20.23Z"/>
        </g>
      </g>
      <path class="cls-1" d="m801.11,1602.2C359.38,1602.2,0,1242.83,0,801.11S359.38,0,801.11,0s801.09,359.38,801.09,801.11-359.38,801.09-801.09,801.09Zm0-1559.39C382.98,42.81,42.81,382.98,42.81,801.11s340.16,758.28,758.3,758.28,758.28-340.16,758.28-758.28S1219.23,42.81,801.11,42.81Z"/>
      <path class="cls-1" d="m801.11,1266.26c-256.49,0-465.17-208.66-465.17-465.15s208.68-465.17,465.17-465.17,465.15,208.68,465.15,465.17-208.66,465.15-465.15,465.15Zm0-887.51c-232.89,0-422.36,189.47-422.36,422.36s189.47,422.34,422.36,422.34,422.34-189.45,422.34-422.34-189.45-422.36-422.34-422.36Z"/>
      <g>
        <rect class="cls-1" x="189.99" y="773.18" width="55.84" height="55.84" rx="27.92" ry="27.92"/>
        <rect class="cls-1" x="1356.38" y="773.18" width="55.84" height="55.84" rx="27.92" ry="27.92"/>
      </g>
    </g>
  </g>
</svg>