<?xml version="1.0" encoding="UTF-8"?>
<svg id="Capa_2" data-name="Capa 2" xmlns="http://www.w3.org/2000/svg" viewBox="0 0 1602.2 1602.2">
  <defs>
    <style>
      .cls-1 {
        fill: #f6f6f6;
        stroke-width: 0px;
      }
    </style>
  </defs>
  <g id="Capa_1-2" data-name="Capa 1">
    <g>
      <g>
        <path class="cls-1" d="m872.21,847.59v124h-124v-62.04c0-69.18-54.83-124-124-124h-62.04v-124h124.05v62.04c0,69.18,54.83,124,124,124h62Z"/>
        <rect class="cls-1" x="562.18" y="847.59" width="124.01" height="123.99"/>
        <path class="cls-1" d="m732.31,630.6h307.73v170.7h-230.25c-42.76,0-77.48-34.72-77.48-77.48v-93.21h0Z"/>
      </g>
      <g>
        <path class="cls-1" d="m337.24,540.12l-127.45-78.79,22.28-36.04,127.45,78.79-22.28,36.04Z"/>
        <path class="cls-1" d="m377.92,471.39l-104.92-106.96,24.9-24.44,128.85,13.36-11.77,11.54-69.86-71.22,29.66-29.08,104.92,106.98-24.92,24.44-128.83-13.38,11.77-11.54,69.84,71.22-29.64,29.08Z"/>
        <path class="cls-1" d="m546.13,334.22l-37.61,19.54-69.11-132.95,104.27-54.2,15.09,29.06-66.66,34.66,54.01,103.89Zm-41.47-73.25l61.35-31.9,15.11,29.06-61.35,31.9-15.11-29.06Z"/>
        <path class="cls-1" d="m634.91,291.78l-28.87-147.04,67.21-13.19c13.44-2.65,25.46-2.76,36.04-.33,10.58,2.45,19.34,7.23,26.28,14.38,6.92,7.13,11.5,16.3,13.69,27.51,2.17,11.06,1.4,21.15-2.34,30.25-3.74,9.09-10.05,16.72-18.96,22.91-8.88,6.19-20.05,10.6-33.49,13.23l-44.11,8.68,15.05-21.07,11.1,56.5-41.6,8.17Zm31.36-60.27l-22.22-15.49,41.58-8.15c8.68-1.71,14.78-4.87,18.31-9.49,3.53-4.62,4.64-10.28,3.32-17.02-1.36-6.86-4.54-11.77-9.55-14.7-5.02-2.95-11.85-3.57-20.55-1.86l-41.58,8.17,14.72-22.74,15.97,81.27Zm59.6,42.39l-47.07-46.39,44.34-8.7,47.26,46.34-44.52,8.74Z"/>
        <path class="cls-1" d="m779.52,262.83l83.72-140.77,41.43,5.02,47.81,156.76-43.77-5.33-35.85-134.37,16.58,2.01-67,121.89-42.92-5.21Zm39.42-24.54l14.59-29.7,72.68,8.82,7.07,32.34-94.34-11.46Z"/>
        <path class="cls-1" d="m982.56,300.69l43.96-107.59-42.6-17.41,12.71-31.1,124.25,50.77-12.71,31.1-42.41-17.33-43.96,107.59-39.24-16.03Z"/>
        <path class="cls-1" d="m1133.02,344.23l62.1,47.74-19.96,25.96-95.36-73.33,91.35-118.77,93.15,71.64-19.96,25.96-59.89-46.07-51.42,66.87Zm33.65-48.66l55.14,42.41-19.31,25.11-55.14-42.41,19.31-25.11Z"/>
        <path class="cls-1" d="m1195.17,438.19l121.72-87.38,24.46,34.07-121.7,87.4-24.48-34.09Zm49.04,11.43l37.23-29.64,93.75,12.02,27.22,37.9-93.96-11.58-33.74-4.77-30.5-3.93Zm9.64,70.3l21.78-75.73,40.11,5.21-33.17,110.52-28.72-39.99Z"/>
      </g>
      <g>
        <path class="cls-1" d="m173.19,1030.64l109.26-49.31,21.32,47.3c4.43,9.78,6.65,18.92,6.67,27.43,0,8.51-2.07,16.03-6.27,22.56-4.2,6.52-10.41,11.64-18.63,15.36-8.11,3.66-15.99,4.89-23.6,3.7-7.61-1.21-14.59-4.64-20.9-10.31-6.31-5.66-11.66-13.4-16.07-23.18l-15.01-33.24,16.16,6.23-41.54,18.73-11.39-25.27Zm31.33,69.46l27.32-45.21,12.19,27.01-27.17,45.51-12.33-27.3Zm18.77-61.64l6.79-16.6,14.38,31.84c3.51,7.82,7.84,12.88,12.96,15.2,5.1,2.32,10.64,2.15,16.58-.52,6.02-2.72,9.85-6.75,11.43-12.1,1.59-5.37.63-11.94-2.91-19.75l-14.36-31.84,17.1,5.81-61.98,27.97Z"/>
        <path class="cls-1" d="m235.67,1158.53l95.66-72.22,13.84,18.31-26.28,108.45-6.71-8.88,68.88-52.01,16.51,21.87-95.68,72.22-13.71-18.17,26.17-108.59,6.71,8.88-68.9,52.01-16.49-21.87Z"/>
        <path class="cls-1" d="m376.35,1317.61c-7.04-5.98-12.65-12.67-16.74-20.11-4.1-7.42-6.58-15.16-7.4-23.18-.84-8.05-.06-15.99,2.32-23.83,2.36-7.86,6.48-15.24,12.29-22.12,5.83-6.9,12.42-12.17,19.75-15.8,7.36-3.66,15.09-5.73,23.18-6.21,8.11-.46,16.14.69,24.1,3.45,7.96,2.78,15.53,7.19,22.68,13.23,7.94,6.71,13.94,14.15,18.04,22.3,4.08,8.17,6.04,16.76,5.92,25.75l-24.23,1.07c-.1-6.23-1.34-11.85-3.66-16.89-2.32-5.04-5.75-9.47-10.28-13.29-4.26-3.62-8.78-6.23-13.52-7.86-4.77-1.63-9.55-2.24-14.38-1.84-4.83.4-9.47,1.8-13.92,4.14-4.47,2.36-8.55,5.73-12.23,10.08-3.68,4.37-6.31,8.95-7.9,13.73-1.59,4.79-2.17,9.59-1.78,14.42.42,4.83,1.82,9.45,4.2,13.86,2.4,4.43,5.73,8.45,10.01,12.04,4.52,3.85,9.47,6.48,14.82,7.94,5.33,1.46,11.12,1.67,17.37.67l2.97,24.06c-8.84,1.63-17.66,1.13-26.42-1.51-8.76-2.63-17.16-7.34-25.19-14.11Z"/>
        <path class="cls-1" d="m453.01,1371.31c-3.89-2.38-6.42-5.77-7.55-10.14s-.42-8.65,2.13-12.86c2.57-4.18,6.02-6.71,10.39-7.59,4.35-.9,8.47-.15,12.37,2.24,3.99,2.45,6.54,5.79,7.69,10.03,1.15,4.26.46,8.47-2.11,12.67-2.57,4.18-6.02,6.77-10.39,7.8-4.37,1-8.55.29-12.54-2.15Z"/>
        <path class="cls-1" d="m547.97,1418.01l40.34-101.88,6.73,15.55-33.42-13.23,8.19-20.69,48.08,19.04-44.15,111.44-25.77-10.22Z"/>
        <path class="cls-1" d="m643.12,1451.04c-8.11-1.9-15.91-4.87-23.41-8.93-7.48-4.03-13.55-8.72-18.17-14.01l15.34-18.23c3.68,4.26,8.26,8.03,13.71,11.31,5.43,3.26,11.16,5.6,17.16,7,6.79,1.59,12.44,1.51,16.95-.25,4.52-1.76,7.32-4.98,8.4-9.64,1.05-4.45.15-8.34-2.7-11.71-2.86-3.37-8.11-5.96-15.78-7.76l-12.33-2.88,4.18-17.83,41.14-29.24.73,10.37-61.18-14.32,5.08-21.68,81.69,19.13-4.1,17.52-40.97,29.27-11.85-11.04,7.84,1.84c14.34,3.37,24.44,9.11,30.25,17.29,5.83,8.15,7.57,17.31,5.18,27.43-1.53,6.54-4.68,12.29-9.47,17.2-4.79,4.91-11.16,8.32-19.11,10.22-7.94,1.88-17.48,1.53-28.6-1.07Z"/>
        <path class="cls-1" d="m735.18,1464.56l9.34-109.2,10.93,12.96-35.83-3.07,1.88-22.18,51.53,4.43-10.22,119.42-27.63-2.36Z"/>
        <path class="cls-1" d="m796.72,1430.68l-.65-21.41,48.43-1.48.67,21.38-48.45,1.51Z"/>
        <path class="cls-1" d="m917,1459.77c-8.22,1.48-16.53,1.84-24.96,1.11-8.42-.75-15.87-2.61-22.33-5.62l7.02-22.85c5.08,2.45,10.74,4.1,16.97,4.93,6.25.86,12.4.73,18.48-.38,6.84-1.23,12-3.55,15.45-6.96,3.45-3.39,4.72-7.5,3.87-12.35-.56-3.03-1.84-5.58-3.83-7.65-2.01-2.07-5.1-3.37-9.32-3.89-4.2-.52-9.91-.13-17.1,1.17l-30.16,5.43-5.89-67.5,71.95-12.98,3.95,21.93-62.19,11.2,11.92-15.03,4.33,48.12-16.41-9.93,24.94-4.49c11.69-2.09,21.38-2.19,29.1-.27,7.71,1.9,13.69,5.33,17.94,10.24,4.26,4.91,7,10.87,8.26,17.83,1.28,6.96.69,13.71-1.74,20.23-2.42,6.52-6.92,12.27-13.5,17.22-6.61,4.95-15.51,8.45-26.74,10.47Z"/>
        <path class="cls-1" d="m1040.5,1425.66c-9.18,3.51-18.25,4.39-27.24,2.65-8.99-1.76-17.2-6.15-24.67-13.19-7.48-7.02-13.57-16.68-18.27-28.93-4.7-12.27-6.63-23.52-5.79-33.74.84-10.22,4.01-19,9.53-26.3,5.5-7.32,12.83-12.73,22.01-16.24,9.28-3.57,18.37-4.45,27.3-2.7,8.95,1.78,17.14,6.17,24.6,13.21,7.48,7.04,13.57,16.68,18.27,28.95,4.7,12.25,6.63,23.5,5.79,33.72-.84,10.22-3.99,19-9.45,26.28-5.46,7.3-12.81,12.73-22.1,16.28Zm-8.4-21.91c4.37-1.67,7.71-4.37,10.01-8.07,2.32-3.7,3.39-8.57,3.2-14.61-.19-6.04-1.88-13.27-5.12-21.7-3.22-8.42-6.79-14.93-10.7-19.54-3.91-4.62-7.96-7.53-12.17-8.74-4.18-1.19-8.47-.96-12.83.71-4.26,1.65-7.55,4.31-9.87,8.01-2.3,3.7-3.37,8.57-3.18,14.61.17,6.06,1.88,13.29,5.1,21.7,3.24,8.42,6.81,14.95,10.72,19.57,3.91,4.6,7.96,7.5,12.15,8.72,4.2,1.21,8.42.98,12.69-.65Z"/>
        <path class="cls-1" d="m1161.28,1364.58c-9.28,5.83-18.54,8.95-27.78,9.36-9.26.42-18.04-1.94-26.4-7.07-8.34-5.14-15.95-13.17-22.83-24.1-7.34-11.69-11.37-22.97-12.08-33.86-.69-10.87,1.51-20.88,6.61-30.04,5.12-9.13,12.75-16.89,22.89-23.29,5.41-3.39,10.95-6.06,16.62-8.01,5.64-1.92,11-2.86,16.03-2.8l2.15,22.72c-4.03-.17-7.86.4-11.5,1.67-3.66,1.28-7.21,3.01-10.7,5.21-8.78,5.52-14.07,12.54-15.87,21.09-1.78,8.53.61,18.02,7.17,28.45,1.09,1.76,2.34,3.66,3.72,5.77,1.38,2.09,2.99,4.06,4.81,5.87l-10.35-1.99c-.54-4.93-.17-9.59,1.13-13.96,1.3-4.39,3.53-8.49,6.73-12.31,3.18-3.83,7.19-7.27,12.02-10.31,6.58-4.12,13.29-6.52,20.15-7.19,6.88-.67,13.36.38,19.48,3.14,6.1,2.76,11.16,7.34,15.18,13.71,4.33,6.86,6.35,13.9,6.1,21.13-.23,7.23-2.36,14.03-6.4,20.4-4.01,6.38-9.64,11.83-16.89,16.39Zm-12.33-16.72c3.28-2.07,5.83-4.52,7.63-7.34,1.8-2.8,2.7-5.83,2.7-9.07-.02-3.22-.96-6.33-2.84-9.32-2.91-4.64-6.81-7.36-11.69-8.13-4.87-.79-9.91.46-15.13,3.74-3.47,2.19-6.1,4.75-7.9,7.69s-2.72,6.02-2.8,9.24c-.06,3.22.84,6.31,2.74,9.32,1.82,2.88,4.16,5.02,7.04,6.38,2.86,1.36,6.02,1.88,9.45,1.55s7.04-1.69,10.81-4.06Z"/>
        <path class="cls-1" d="m1260.05,1287.42c-8.03,7.46-16.53,12.25-25.54,14.38s-18.08,1.44-27.26-2.05c-9.16-3.49-18.12-9.95-26.9-19.42-9.39-10.12-15.45-20.46-18.17-31.02-2.72-10.58-2.4-20.82.9-30.75,3.32-9.93,9.39-18.98,18.17-27.13,4.68-4.35,9.64-8.01,14.82-10.95,5.21-2.97,10.28-4.87,15.24-5.73l6.33,21.91c-3.97.59-7.63,1.84-10.97,3.78-3.34,1.92-6.52,4.31-9.53,7.09-7.63,7.07-11.52,14.97-11.69,23.68-.15,8.72,3.95,17.6,12.35,26.63,1.38,1.51,2.97,3.16,4.7,4.98,1.76,1.8,3.7,3.43,5.83,4.87l-10.56-.02c-1.42-4.75-1.92-9.39-1.46-13.94.44-4.54,1.88-8.99,4.31-13.34,2.42-4.37,5.73-8.47,9.91-12.35,5.69-5.29,11.85-8.9,18.46-10.83,6.63-1.94,13.19-2.11,19.71-.54,6.52,1.59,12.35,5.12,17.48,10.66,5.52,5.94,8.82,12.48,9.93,19.63,1.11,7.15.27,14.24-2.49,21.24-2.76,7-7.27,13.42-13.57,19.23Zm-15.22-14.13c2.84-2.63,4.89-5.52,6.15-8.61,1.23-3.11,1.57-6.25.96-9.43-.63-3.16-2.13-6.04-4.54-8.63-3.72-4.03-8.05-5.96-12.98-5.83-4.93.15-9.66,2.32-14.19,6.5-3.01,2.8-5.12,5.81-6.33,9.03-1.21,3.24-1.55,6.44-1.02,9.59.54,3.18,2.01,6.06,4.41,8.65,2.32,2.51,5.04,4.16,8.11,4.98,3.09.79,6.27.71,9.59-.25,3.3-.96,6.58-2.97,9.85-6Z"/>
        <path class="cls-1" d="m1333.47,1205.75c-5,6.67-10.85,12.63-17.56,17.87-6.71,5.25-13.42,8.93-20.13,11.02l-10.54-21.36c5.39-1.67,10.68-4.35,15.87-8.03,5.18-3.68,9.62-7.99,13.32-12.92,4.16-5.56,6.35-10.79,6.56-15.62.19-4.85-1.63-8.7-5.46-11.58-3.66-2.74-7.59-3.47-11.81-2.22-4.22,1.25-8.7,5.04-13.42,11.35l-7.61,10.14-14.65-10.97-10.28-49.42,9.8,3.47-37.67,50.32-17.83-13.36,50.32-67.14,14.38,10.77,10.37,49.29-14.84,6.4,4.81-6.44c8.84-11.79,18.17-18.71,27.97-20.76,9.82-2.07,18.9.02,27.2,6.23,5.39,4.06,9.39,9.24,11.98,15.59,2.57,6.38,3.14,13.57,1.69,21.59-1.46,8.05-5.62,16.64-12.46,25.77Z"/>
        <path class="cls-1" d="m1344.63,1118.96l-18.86-10.12,22.87-42.73,18.88,10.12-22.89,42.73Z"/>
        <path class="cls-1" d="m1416.77,1057.13l-101.72-40.82,15.59-6.65-13.4,33.36-20.65-8.28,19.25-47.99,111.25,44.65-10.33,25.73Z"/>
      </g>
      <path class="cls-1" d="m801.11,1602.2C359.38,1602.2,0,1242.83,0,801.11S359.38,0,801.11,0s801.09,359.38,801.09,801.11-359.38,801.09-801.09,801.09Zm0-1559.39C382.98,42.81,42.81,382.98,42.81,801.11s340.16,758.28,758.3,758.28,758.28-340.16,758.28-758.28S1219.23,42.81,801.11,42.81Z"/>
      <path class="cls-1" d="m801.11,1266.26c-256.49,0-465.17-208.66-465.17-465.15s208.68-465.17,465.17-465.17,465.15,208.68,465.15,465.17-208.66,465.15-465.15,465.15Zm0-887.51c-232.89,0-422.36,189.47-422.36,422.36s189.47,422.34,422.36,422.34,422.34-189.45,422.34-422.34-189.45-422.36-422.34-422.36Z"/>
      <g>
        <rect class="cls-1" x="174.88" y="761.02" width="80.16" height="80.16" rx="40.08" ry="40.08"/>
        <rect class="cls-1" x="1347.16" y="761.02" width="80.16" height="80.16" rx="40.08" ry="40.08"/>
      </g>
    </g>
  </g>
</svg>