<?xml version="1.0" encoding="UTF-8"?>
<svg id="Capa_2" data-name="Capa 2" xmlns="http://www.w3.org/2000/svg" viewBox="0 0 2116.98 1316.24">
  <defs>
    <style>
      .cls-1 {
        fill: #b9ddcb;
        stroke-width: 0px;
      }
    </style>
  </defs>
  <g id="Capa_1-2" data-name="Capa 1">
    <g>
      <g>
        <path class="cls-1" d="m1217.83,484.93v277.13h-277.86v-138.66c0-154.6-122.85-277.13-277.86-277.13h-139.02V69.15h277.95v138.66c0,154.6,122.85,277.12,277.86,277.12h138.93Z"/>
        <rect class="cls-1" x="523.13" y="484.93" width="277.88" height="277.1"/>
        <path class="cls-1" d="m904.35,0h689.54v381.47h-516.15c-95.7,0-173.39-77.69-173.39-173.39V0h0Z"/>
      </g>
      <path class="cls-1" d="m0,1316.23v-277.08h78.58v277.08H0Z"/>
      <polygon class="cls-1" points="398.86 1039.16 398.86 1316.24 334.17 1316.24 211.53 1168.6 211.53 1316.24 134.55 1316.24 134.55 1039.16 199.23 1039.16 321.87 1186.79 321.87 1039.16 398.86 1039.16"/>
      <polygon class="cls-1" points="533.48 1099.7 533.48 1181.94 656.12 1181.94 656.12 1242.52 533.48 1242.52 533.48 1316.24 454.9 1316.24 454.9 1039.16 672.8 1039.16 672.8 1099.7 533.48 1099.7"/>
      <path class="cls-1" d="m924.85,1229.03c16.8-8,29.93-19.07,39.41-33.36,10.03-15.17,15.05-33.16,15.05-54.02s-5.02-39.37-15.05-54.81c-10.07-15.44-24.32-27.27-42.71-35.43-18.39-8.2-40.24-12.26-65.64-12.26h-127.02v277.09h78.58v-73.64h42.87l50.39,73.64h84.15l-60.03-87.21Zm-37.02-57.68c-8.08,7.13-20.3,10.67-36.7,10.67h-43.67v-81.12h43.67c16.4,0,28.62,3.54,36.7,10.67,8.08,7.16,12.1,17.16,12.1,30.09s-4.02,22.57-12.1,29.69Z"/>
      <path class="cls-1" d="m1207.75,1039.16h-77.38l-122.64,277.09h80.17l21.65-53.86h117.82l21.65,53.86h81.76l-123.04-277.09Zm-74.91,165.43l35.63-88.57,35.63,88.57h-71.25Z"/>
      <path class="cls-1" d="m1367.57,1316.23v-214.94h-85.32v-62.14h248.83v62.14h-84.92v214.94h-78.59Z"/>
      <polygon class="cls-1" points="1643.06 1099.7 1643.06 1146.43 1766.49 1146.43 1766.49 1204.98 1643.06 1204.98 1643.06 1255.66 1783.17 1255.66 1783.17 1316.24 1565.28 1316.24 1565.28 1039.16 1783.17 1039.16 1783.17 1099.7 1643.06 1099.7"/>
      <polygon class="cls-1" points="2116.98 1316.24 2025.71 1316.24 1946.14 1215.65 1916.96 1246.82 1916.96 1316.24 1839.18 1316.24 1839.18 1039.16 1916.96 1039.16 1916.96 1154.23 2024.51 1039.16 2111.05 1039.16 1997.64 1161.72 2116.98 1316.24"/>
    </g>
  </g>
</svg>