<svg xmlns="http://www.w3.org/2000/svg" width="1200" height="760" viewBox="0 0 1200 760" role="img" aria-labelledby="title desc">
  <title id="title">BIM Services illustration</title>
  <desc id="desc">Coordinated BIM model panels with project data nodes.</desc>
  <defs>
    <linearGradient id="bg" x1="0" x2="1" y1="0" y2="1">
      <stop offset="0" stop-color="#0A2333"/>
      <stop offset="1" stop-color="#10384f"/>
    </linearGradient>
    <filter id="shadow" x="-20%" y="-20%" width="140%" height="140%">
      <feDropShadow dx="0" dy="24" stdDeviation="24" flood-color="#031018" flood-opacity=".35"/>
    </filter>
  </defs>
  <rect width="1200" height="760" rx="44" fill="url(#bg)"/>
  <g opacity=".14" stroke="#66CBFF" stroke-width="2">
    <path d="M120 120h960M120 240h960M120 360h960M120 480h960M120 600h960"/>
    <path d="M180 80v600M360 80v600M540 80v600M720 80v600M900 80v600M1080 80v600"/>
  </g>
  <g filter="url(#shadow)">
    <path d="M285 523V268l185-91 185 91v255l-185 91z" fill="#BFD8E4"/>
    <path d="M470 177v437M285 268l185 99 185-99M285 523l185-156 185 156" fill="none" stroke="#0A2333" stroke-width="8" stroke-linejoin="round"/>
    <path d="M470 367l-92 78v-128zM470 367l92 78v-128z" fill="#66CBFF" opacity=".72"/>
  </g>
  <g fill="none" stroke="#39F1AD" stroke-linecap="round" stroke-width="10">
    <path d="M760 236h190M760 326h260M760 416h220M760 506h150"/>
  </g>
  <g fill="#39F1AD">
    <circle cx="725" cy="236" r="16"/>
    <circle cx="725" cy="326" r="16"/>
    <circle cx="725" cy="416" r="16"/>
    <circle cx="725" cy="506" r="16"/>
  </g>
  <text x="760" y="600" fill="#BFE8D4" font-family="Montserrat, Arial, sans-serif" font-size="34" font-weight="700">BIM Coordination</text>
</svg>
