<svg xmlns="http://www.w3.org/2000/svg" width="1200" height="760" viewBox="0 0 1200 760" role="img" aria-labelledby="title desc">
  <title id="title">Reality Capture illustration</title>
  <desc id="desc">Laser scan point cloud converted into BIM-ready site geometry.</desc>
  <defs>
    <linearGradient id="bg" x1="0" x2="1" y1="0" y2="1">
      <stop offset="0" stop-color="#0A2333"/>
      <stop offset="1" stop-color="#11374c"/>
    </linearGradient>
    <filter id="shadow" x="-20%" y="-20%" width="140%" height="140%">
      <feDropShadow dx="0" dy="24" stdDeviation="24" flood-color="#031018" flood-opacity=".35"/>
    </filter>
  </defs>
  <rect width="1200" height="760" rx="44" fill="url(#bg)"/>
  <g opacity=".35" fill="#66CBFF">
    <circle cx="180" cy="180" r="4"/><circle cx="246" cy="255" r="3"/><circle cx="356" cy="155" r="5"/><circle cx="420" cy="246" r="4"/>
    <circle cx="520" cy="170" r="3"/><circle cx="650" cy="230" r="5"/><circle cx="780" cy="160" r="4"/><circle cx="915" cy="260" r="4"/>
    <circle cx="1010" cy="170" r="5"/><circle cx="230" cy="500" r="4"/><circle cx="340" cy="610" r="5"/><circle cx="515" cy="570" r="3"/>
    <circle cx="720" cy="620" r="4"/><circle cx="890" cy="540" r="5"/><circle cx="1025" cy="620" r="3"/>
  </g>
  <g filter="url(#shadow)">
    <path d="M255 515V292l167-84 167 84v223l-167 84z" fill="#BFD8E4"/>
    <path d="M422 208v391M255 292l167 88 167-88M255 515l167-135 167 135" fill="none" stroke="#0A2333" stroke-linejoin="round" stroke-width="8"/>
  </g>
  <g transform="translate(720 288)">
    <rect x="0" y="145" width="236" height="32" rx="16" fill="#BFE8D4"/>
    <path d="M118 145V42" stroke="#BFE8D4" stroke-linecap="round" stroke-width="18"/>
    <circle cx="118" cy="42" r="38" fill="#39F1AD"/>
    <path d="M118 42 42 10M118 42l92-18M118 42l84 72M118 42 36 106" stroke="#66CBFF" stroke-linecap="round" stroke-width="8"/>
    <circle cx="42" cy="10" r="9" fill="#66CBFF"/>
    <circle cx="210" cy="24" r="9" fill="#66CBFF"/>
    <circle cx="202" cy="114" r="9" fill="#66CBFF"/>
    <circle cx="36" cy="106" r="9" fill="#66CBFF"/>
  </g>
  <path d="M160 648c186-62 326-62 512 0 146 48 270 42 390-14" fill="none" stroke="#F39343" stroke-linecap="round" stroke-width="10" opacity=".85"/>
</svg>
